<svg width="1920" height="1202" viewBox="0 0 1920 1202" fill="none" xmlns="http://www.w3.org/2000/svg">
<path d="M6 1194.5V6H437.277V206V212H443.277H973V524.068V530.068H979H1522V621V627H1528H1914V1195.5L6 1194.5Z" fill="#D9D9D9" fill-opacity="0.81" stroke="#3E3E3E" stroke-width="12"/>
<circle cx="79" cy="83" r="34" fill="#3E3E3E"/>
<circle cx="79" cy="293" r="34" fill="#3E3E3E"/>
<circle cx="484" cy="293" r="34" fill="#3E3E3E"/>
<circle cx="79" cy="503" r="34" fill="#3E3E3E"/>
<circle cx="484" cy="503" r="34" fill="#3E3E3E"/>
<circle cx="889" cy="503" r="34" fill="#3E3E3E"/>
<circle cx="79" cy="713" r="34" fill="#3E3E3E"/>
<circle cx="484" cy="713" r="34" fill="#3E3E3E"/>
<circle cx="889" cy="713" r="34" fill="#3E3E3E"/>
<circle cx="1429" cy="713" r="34" fill="#3E3E3E"/>
<circle cx="1699" cy="713" r="34" fill="#3E3E3E"/>
<circle cx="79" cy="188" r="34" fill="#3E3E3E"/>
<circle cx="79" cy="398" r="34" fill="#3E3E3E"/>
<circle cx="484" cy="398" r="34" fill="#3E3E3E"/>
<circle cx="79" cy="608" r="34" fill="#3E3E3E"/>
<circle cx="484" cy="608" r="34" fill="#3E3E3E"/>
<circle cx="889" cy="608" r="34" fill="#3E3E3E"/>
<circle cx="1429" cy="608" r="34" fill="#3E3E3E"/>
<circle cx="79" cy="818" r="34" fill="#3E3E3E"/>
<circle cx="80" cy="923" r="34" fill="#3E3E3E"/>
<circle cx="484" cy="818" r="34" fill="#3E3E3E"/>
<circle cx="485" cy="923" r="34" fill="#3E3E3E"/>
<circle cx="889" cy="818" r="34" fill="#3E3E3E"/>
<circle cx="890" cy="923" r="34" fill="#3E3E3E"/>
<circle cx="1429" cy="818" r="34" fill="#3E3E3E"/>
<circle cx="1430" cy="923" r="34" fill="#3E3E3E"/>
<circle cx="1699" cy="818" r="34" fill="#3E3E3E"/>
<circle cx="1700" cy="923" r="34" fill="#3E3E3E"/>
<circle cx="349" cy="83" r="34" fill="#3E3E3E"/>
<circle cx="349" cy="293" r="34" fill="#3E3E3E"/>
<circle cx="754" cy="293" r="34" fill="#3E3E3E"/>
<circle cx="349" cy="503" r="34" fill="#3E3E3E"/>
<circle cx="754" cy="503" r="34" fill="#3E3E3E"/>
<circle cx="349" cy="713" r="34" fill="#3E3E3E"/>
<circle cx="754" cy="713" r="34" fill="#3E3E3E"/>
<circle cx="1294" cy="713" r="34" fill="#3E3E3E"/>
<circle cx="349" cy="188" r="34" fill="#3E3E3E"/>
<circle cx="349" cy="398" r="34" fill="#3E3E3E"/>
<circle cx="754" cy="398" r="34" fill="#3E3E3E"/>
<circle cx="349" cy="608" r="34" fill="#3E3E3E"/>
<circle cx="754" cy="608" r="34" fill="#3E3E3E"/>
<circle cx="1294" cy="608" r="34" fill="#3E3E3E"/>
<circle cx="349" cy="818" r="34" fill="#3E3E3E"/>
<circle cx="350" cy="923" r="34" fill="#3E3E3E"/>
<circle cx="754" cy="818" r="34" fill="#3E3E3E"/>
<circle cx="755" cy="923" r="34" fill="#3E3E3E"/>
<circle cx="1294" cy="818" r="34" fill="#3E3E3E"/>
<circle cx="1295" cy="923" r="34" fill="#3E3E3E"/>
<circle cx="214" cy="83" r="34" fill="#3E3E3E"/>
<circle cx="214" cy="293" r="34" fill="#3E3E3E"/>
<circle cx="619" cy="293" r="34" fill="#3E3E3E"/>
<circle cx="889" cy="293" r="34" fill="#3E3E3E"/>
<circle cx="214" cy="503" r="34" fill="#3E3E3E"/>
<circle cx="619" cy="503" r="34" fill="#3E3E3E"/>
<circle cx="214" cy="713" r="34" fill="#3E3E3E"/>
<circle cx="619" cy="713" r="34" fill="#3E3E3E"/>
<circle cx="1159" cy="713" r="34" fill="#3E3E3E"/>
<circle cx="1024" cy="713" r="34" fill="#3E3E3E"/>
<circle cx="1564" cy="713" r="34" fill="#3E3E3E"/>
<circle cx="1834" cy="713" r="34" fill="#3E3E3E"/>
<circle cx="214" cy="188" r="34" fill="#3E3E3E"/>
<circle cx="214" cy="398" r="34" fill="#3E3E3E"/>
<circle cx="619" cy="398" r="34" fill="#3E3E3E"/>
<circle cx="889" cy="398" r="34" fill="#3E3E3E"/>
<circle cx="214" cy="608" r="34" fill="#3E3E3E"/>
<circle cx="619" cy="608" r="34" fill="#3E3E3E"/>
<circle cx="1159" cy="608" r="34" fill="#3E3E3E"/>
<circle cx="1024" cy="608" r="34" fill="#3E3E3E"/>
<circle cx="214" cy="818" r="34" fill="#3E3E3E"/>
<circle cx="215" cy="923" r="34" fill="#3E3E3E"/>
<circle cx="619" cy="818" r="34" fill="#3E3E3E"/>
<circle cx="620" cy="923" r="34" fill="#3E3E3E"/>
<circle cx="1159" cy="818" r="34" fill="#3E3E3E"/>
<circle cx="1160" cy="923" r="34" fill="#3E3E3E"/>
<circle cx="1024" cy="818" r="34" fill="#3E3E3E"/>
<circle cx="1025" cy="923" r="34" fill="#3E3E3E"/>
<circle cx="1564" cy="818" r="34" fill="#3E3E3E"/>
<circle cx="1565" cy="923" r="34" fill="#3E3E3E"/>
<circle cx="1834" cy="818" r="34" fill="#3E3E3E"/>
<circle cx="1835" cy="923" r="34" fill="#3E3E3E"/>
<rect x="68" y="995" width="1780" height="134" rx="12" fill="white"/>
<rect x="67" y="989" width="1786" height="148" rx="18" stroke="#3E3E3E" stroke-width="12" stroke-linejoin="round"/>
<rect x="1550" y="1108" width="203" height="58" rx="18" stroke="#3E3E3E" stroke-width="12"/>
<rect x="1253" y="1108" width="203" height="58" rx="18" stroke="#3E3E3E" stroke-width="12"/>
<rect x="1259" y="1114" width="191" height="46" rx="12" fill="#D9D9D9"/>
<rect x="1556" y="1114" width="191" height="46" rx="12" fill="#D9D9D9"/>
<rect x="962" y="1114" width="191" height="46" rx="12" fill="#D9D9D9"/>
<rect x="956" y="1108" width="203" height="58" rx="18" stroke="#3E3E3E" stroke-width="12"/>
<circle cx="183" cy="1130" r="42" fill="#3E3E3E"/>
<circle cx="163" cy="1110" r="30" fill="#D9D9D9" stroke="#3E3E3E" stroke-width="12"/>
<path d="M387.6 1038.6V1099H376.4V1038.6H354.5V1029.2H409.5V1038.6H387.6ZM420.561 1099V1029.2H464.261V1038.6H431.761V1058.9H463.061V1068.3H431.761V1089.6H464.261V1099H420.561ZM516.422 1065.6L516.722 1044.6H515.922L501.922 1080.5L487.922 1044.6H487.122L487.422 1065.6V1099H477.522V1029.2H491.222L501.922 1056.9H502.622L513.422 1029.2H526.322V1099H516.422V1065.6ZM539.283 1029.2H584.483V1099H573.283V1038.6H550.483V1099H539.283V1029.2Z" fill="#3E3E3E"/>
</svg>
